<svg width="96" height="32" viewBox="0 0 96 32" fill="none" xmlns="http://www.w3.org/2000/svg">
<rect x="0.5" y="0.5" width="94.8594" height="31" rx="15.5" stroke="#727272"/>
<g clip-path="url(#clip0_0_341)">
<path d="M21.1522 24H21.0002C18.8851 23.9799 16.8641 23.123 15.3792 21.6168C13.8942 20.1105 13.0662 18.0775 13.0763 15.9624C13.0863 13.8472 13.9336 11.8222 15.4328 10.3301C16.932 8.83801 18.961 8.00037 21.0762 8.00037C23.1913 8.00037 25.2204 8.83801 26.7196 10.3301C28.2188 11.8222 29.066 13.8472 29.0761 15.9624C29.0861 18.0775 28.2581 20.1105 26.7732 21.6168C25.2882 23.123 23.2672 23.9799 21.1522 24ZM20.7422 9.79801C20.5162 10.071 20.2792 10.511 20.0652 11.121C19.6962 12.176 19.4392 13.617 19.3782 15.25H22.9252C22.8652 13.617 22.6072 12.176 22.2382 11.121C22.0252 10.511 21.7882 10.071 21.5622 9.79801C21.3682 9.56301 21.2362 9.51301 21.1772 9.50201H21.1332C21.0782 9.50901 20.9432 9.55401 20.7422 9.79801ZM17.8772 15.25C17.9392 13.479 18.2172 11.864 18.6502 10.626C18.7492 10.342 18.8582 10.072 18.9792 9.82001C17.7985 10.2071 16.7533 10.9242 15.9672 11.8864C15.1811 12.8486 14.687 14.0158 14.5432 15.25H17.8772ZM14.5432 16.75C14.687 17.9842 15.1811 19.1514 15.9672 20.1136C16.7533 21.0758 17.7985 21.7929 18.9792 22.18C18.8546 21.9176 18.7444 21.6485 18.6492 21.374C18.2162 20.136 17.9392 18.521 17.8772 16.75H14.5432ZM19.3782 16.75C19.4392 18.383 19.6962 19.824 20.0652 20.879C20.2792 21.489 20.5162 21.929 20.7422 22.202C20.9442 22.446 21.0782 22.492 21.1332 22.499L21.1772 22.498C21.2372 22.488 21.3672 22.437 21.5622 22.202C21.7882 21.929 22.0252 21.489 22.2382 20.879C22.6082 19.824 22.8642 18.383 22.9252 16.75H19.3782ZM24.4262 16.75C24.3652 18.521 24.0872 20.136 23.6542 21.374C23.5722 21.609 23.4832 21.834 23.3862 22.048C24.4804 21.6155 25.4368 20.8945 26.1537 19.9615C26.8706 19.0286 27.3211 17.9187 27.4572 16.75H24.4272H24.4262ZM27.4572 15.25C27.321 14.0814 26.8705 12.9715 26.1536 12.0386C25.4367 11.1057 24.4803 10.3846 23.3862 9.95201C23.4832 10.166 23.5722 10.392 23.6542 10.626C24.0872 11.864 24.3652 13.479 24.4262 15.25H27.4572Z" fill="white"/>
</g>
<path d="M34.1597 11.718V21H41.2057V19.284H36.2007V17.009H40.6987V15.423H36.2007V13.434H41.1017V11.718H34.1597ZM42.3944 14.279V21H44.2404V17.477C44.2404 16.7923 44.353 16.3027 44.5784 16.008C44.8037 15.7047 45.1677 15.553 45.6704 15.553C46.1124 15.553 46.42 15.6917 46.5934 15.969C46.7667 16.2377 46.8534 16.6493 46.8534 17.204V21H48.6994V16.866C48.6994 16.45 48.6604 16.073 48.5824 15.735C48.513 15.3883 48.3874 15.098 48.2054 14.864C48.0234 14.6213 47.772 14.435 47.4514 14.305C47.1394 14.1663 46.7364 14.097 46.2424 14.097C45.8524 14.097 45.471 14.188 45.0984 14.37C44.7257 14.5433 44.4224 14.825 44.1884 15.215H44.1494V14.279H42.3944ZM53.2334 19.414C52.9474 19.414 52.7091 19.3533 52.5184 19.232C52.3278 19.1107 52.1718 18.9547 52.0504 18.764C51.9378 18.5733 51.8554 18.361 51.8034 18.127C51.7601 17.8843 51.7384 17.6417 51.7384 17.399C51.7384 17.1477 51.7644 16.9093 51.8164 16.684C51.8771 16.45 51.9681 16.2463 52.0894 16.073C52.2194 15.891 52.3754 15.748 52.5574 15.644C52.7481 15.54 52.9734 15.488 53.2334 15.488C53.5368 15.488 53.7881 15.5443 53.9874 15.657C54.1868 15.7697 54.3471 15.9213 54.4684 16.112C54.5898 16.3027 54.6764 16.5237 54.7284 16.775C54.7804 17.0177 54.8064 17.2777 54.8064 17.555C54.8064 17.7977 54.7718 18.0317 54.7024 18.257C54.6418 18.4737 54.5464 18.6687 54.4164 18.842C54.2864 19.0153 54.1218 19.154 53.9224 19.258C53.7231 19.362 53.4934 19.414 53.2334 19.414ZM56.5614 20.571V14.279H54.8064V15.176H54.7804C54.5551 14.786 54.2734 14.5087 53.9354 14.344C53.6061 14.1793 53.2204 14.097 52.7784 14.097C52.3104 14.097 51.8944 14.188 51.5304 14.37C51.1751 14.552 50.8761 14.799 50.6334 15.111C50.3908 15.4143 50.2044 15.7697 50.0744 16.177C49.9531 16.5757 49.8924 16.9917 49.8924 17.425C49.8924 17.8843 49.9444 18.322 50.0484 18.738C50.1611 19.1453 50.3344 19.505 50.5684 19.817C50.8024 20.1203 51.1014 20.363 51.4654 20.545C51.8294 20.7183 52.2628 20.805 52.7654 20.805C53.1728 20.805 53.5584 20.7227 53.9224 20.558C54.2951 20.3847 54.5811 20.1203 54.7804 19.765H54.8064V20.649C54.8151 21.1257 54.6981 21.52 54.4554 21.832C54.2214 22.144 53.8444 22.3 53.3244 22.3C52.9951 22.3 52.7048 22.2307 52.4534 22.092C52.2021 21.962 52.0331 21.7237 51.9464 21.377H50.1134C50.1394 21.7583 50.2434 22.0833 50.4254 22.352C50.6161 22.6293 50.8501 22.8547 51.1274 23.028C51.4134 23.2013 51.7254 23.327 52.0634 23.405C52.4101 23.4917 52.7481 23.535 53.0774 23.535C53.8488 23.535 54.4641 23.431 54.9234 23.223C55.3828 23.015 55.7338 22.7593 55.9764 22.456C56.2191 22.1613 56.3751 21.8407 56.4444 21.494C56.5224 21.1473 56.5614 20.8397 56.5614 20.571ZM58.0997 11.718V21H59.9457V11.718H58.0997ZM63.2973 13.239V11.718H61.4513V13.239H63.2973ZM61.4513 14.279V21H63.2973V14.279H61.4513ZM66.1808 18.816H64.4258C64.4432 19.2667 64.5428 19.6437 64.7248 19.947C64.9155 20.2417 65.1538 20.48 65.4398 20.662C65.7345 20.844 66.0682 20.974 66.4408 21.052C66.8135 21.13 67.1948 21.169 67.5848 21.169C67.9662 21.169 68.3388 21.13 68.7028 21.052C69.0755 20.9827 69.4048 20.857 69.6908 20.675C69.9768 20.493 70.2065 20.2547 70.3798 19.96C70.5618 19.6567 70.6528 19.284 70.6528 18.842C70.6528 18.53 70.5922 18.27 70.4708 18.062C70.3495 17.8453 70.1892 17.6677 69.9898 17.529C69.7905 17.3817 69.5608 17.2647 69.3008 17.178C69.0495 17.0913 68.7895 17.0177 68.5208 16.957C68.2608 16.8963 68.0052 16.84 67.7538 16.788C67.5025 16.736 67.2772 16.6797 67.0778 16.619C66.8872 16.5497 66.7312 16.463 66.6098 16.359C66.4885 16.255 66.4278 16.1207 66.4278 15.956C66.4278 15.8173 66.4625 15.709 66.5318 15.631C66.6012 15.5443 66.6835 15.4793 66.7788 15.436C66.8828 15.3927 66.9955 15.3667 67.1168 15.358C67.2382 15.3407 67.3508 15.332 67.4548 15.332C67.7842 15.332 68.0702 15.397 68.3128 15.527C68.5555 15.6483 68.6898 15.8867 68.7158 16.242H70.4708C70.4362 15.826 70.3278 15.4837 70.1458 15.215C69.9725 14.9377 69.7515 14.7167 69.4828 14.552C69.2142 14.3873 68.9065 14.2703 68.5598 14.201C68.2218 14.1317 67.8708 14.097 67.5068 14.097C67.1428 14.097 66.7875 14.1317 66.4408 14.201C66.0942 14.2617 65.7822 14.3743 65.5048 14.539C65.2275 14.695 65.0022 14.9117 64.8288 15.189C64.6642 15.4663 64.5818 15.8217 64.5818 16.255C64.5818 16.5497 64.6425 16.801 64.7638 17.009C64.8852 17.2083 65.0455 17.3773 65.2448 17.516C65.4442 17.646 65.6695 17.7543 65.9208 17.841C66.1808 17.919 66.4452 17.9883 66.7138 18.049C67.3725 18.1877 67.8838 18.3263 68.2478 18.465C68.6205 18.6037 68.8068 18.8117 68.8068 19.089C68.8068 19.2537 68.7678 19.3923 68.6898 19.505C68.6118 19.609 68.5122 19.6957 68.3908 19.765C68.2782 19.8257 68.1482 19.8733 68.0008 19.908C67.8622 19.934 67.7278 19.947 67.5978 19.947C67.4158 19.947 67.2382 19.9253 67.0648 19.882C66.9002 19.8387 66.7528 19.7737 66.6228 19.687C66.4928 19.5917 66.3845 19.4747 66.2978 19.336C66.2198 19.1887 66.1808 19.0153 66.1808 18.816ZM71.7333 11.718V21H73.5793V17.477C73.5793 16.7923 73.6919 16.3027 73.9173 16.008C74.1426 15.7047 74.5066 15.553 75.0093 15.553C75.4513 15.553 75.7589 15.6917 75.9323 15.969C76.1056 16.2377 76.1923 16.6493 76.1923 17.204V21H78.0383V16.866C78.0383 16.45 77.9993 16.073 77.9213 15.735C77.8519 15.3883 77.7263 15.098 77.5443 14.864C77.3623 14.6213 77.1109 14.435 76.7903 14.305C76.4783 14.1663 76.0753 14.097 75.5813 14.097C75.2346 14.097 74.8793 14.188 74.5153 14.37C74.1513 14.5433 73.8523 14.825 73.6183 15.215H73.5793V11.718H71.7333Z" fill="white"/>
<defs>
<clipPath id="clip0_0_341">
<rect width="16" height="16" fill="white" transform="translate(13 8)"/>
</clipPath>
</defs>
</svg>
