<svg width="24" height="24" viewBox="0 0 24 24" fill="none" xmlns="http://www.w3.org/2000/svg">
<g opacity="0.7">
<rect width="24" height="24" rx="2" fill="url(#paint0_linear_0_322)"/>
<g clip-path="url(#clip0_0_322)">
<path d="M17.7931 9.16503C17.6635 8.52048 17.3406 7.93074 16.8673 7.47437C16.3941 7.018 15.793 6.71667 15.1441 6.61053C14.6567 6.53282 14.1578 6.56888 13.6866 6.7159C13.2153 6.86292 12.7845 7.11691 12.4276 7.45803C12.3115 7.56604 12.1588 7.62609 12.0001 7.62609C11.8415 7.62609 11.6888 7.56604 11.5726 7.45803C10.9802 6.88501 10.1898 6.56233 9.36556 6.55707C8.54137 6.55181 7.74685 6.86437 7.14716 7.42978C6.54747 7.99519 6.18873 8.76996 6.14552 9.59304C6.10231 10.4161 6.37795 11.2242 6.91515 11.8493L11.3521 17.1368C11.4316 17.2313 11.5307 17.3072 11.6426 17.3593C11.7544 17.4114 11.8764 17.4384 11.9998 17.4384C12.1232 17.4384 12.2451 17.4114 12.357 17.3593C12.4689 17.3072 12.568 17.2313 12.6474 17.1368L17.0844 11.8493C17.3982 11.4851 17.625 11.0543 17.7478 10.5895C17.8706 10.1248 17.8861 9.63817 17.7931 9.16653V9.16503Z" fill="white"/>
</g>
</g>
<defs>
<linearGradient id="paint0_linear_0_322" x1="0" y1="0" x2="24" y2="24" gradientUnits="userSpaceOnUse">
<stop stop-color="#450AF5"/>
<stop offset="1" stop-color="#C4EFD9"/>
</linearGradient>
<clipPath id="clip0_0_322">
<rect width="12" height="12" fill="white" transform="translate(6 6)"/>
</clipPath>
</defs>
</svg>
