<svg width="24" height="24" viewBox="0 0 24 24" fill="none" xmlns="http://www.w3.org/2000/svg">
<g clip-path="url(#clip0_0_299)">
<path d="M15.356 10.558C15.356 13.181 13.196 15.308 10.533 15.308C7.86898 15.308 5.70898 13.181 5.70898 10.558C5.70898 7.93498 7.86898 5.80798 10.533 5.80798C13.197 5.80798 15.356 7.93498 15.356 10.558Z" fill="white"/>
<path d="M1.12598 10.558C1.12598 5.41795 5.35198 1.27795 10.533 1.27795C15.713 1.27795 19.94 5.41795 19.94 10.558C19.942 12.6786 19.2079 14.7343 17.863 16.374L22.207 20.718C22.3891 20.9066 22.4899 21.1592 22.4877 21.4214C22.4854 21.6836 22.3802 21.9344 22.1948 22.1198C22.0094 22.3052 21.7586 22.4103 21.4964 22.4126C21.2342 22.4149 20.9816 22.3141 20.793 22.132L16.44 17.779C14.7615 19.1153 12.6785 19.8411 10.533 19.837C5.35298 19.837 1.12598 15.698 1.12598 10.558ZM10.533 3.27795C6.42798 3.27795 3.12598 6.55195 3.12598 10.558C3.12598 14.564 6.42798 17.837 10.533 17.837C14.638 17.837 17.94 14.564 17.94 10.557C17.94 6.55195 14.638 3.27795 10.533 3.27795Z" fill="white"/>
</g>
<defs>
<clipPath id="clip0_0_299">
<rect width="24" height="24" fill="white"/>
</clipPath>
</defs>
</svg>
