<svg width="25" height="32" viewBox="0 0 25 32" fill="none" xmlns="http://www.w3.org/2000/svg">
<path fill-rule="evenodd" clip-rule="evenodd" d="M6.16683 20.6302H11.8335L14.4168 10.9636H6.16683C3.50016 10.9636 1.3335 13.1302 1.3335 15.7969C1.3335 18.4636 3.50016 20.6302 6.16683 20.6302Z" fill="white"/>
<path fill-rule="evenodd" clip-rule="evenodd" d="M18.8335 9.96356H6.16683C2.91683 9.96356 0.333496 12.5469 0.333496 15.7969C0.333496 19.0469 2.91683 21.6302 6.16683 21.6302H18.8335C22.0835 21.6302 24.6668 19.0469 24.6668 15.7969C24.6668 12.5469 22.0002 9.96356 18.8335 9.96356ZM1.3335 15.7969C1.3335 13.1302 3.50016 10.9636 6.16683 10.9636H14.4168L11.8335 20.6302H6.16683C3.50016 20.6302 1.3335 18.4636 1.3335 15.7969Z" fill="#0066FF"/>
<path d="M20.5 13.2969C20.6667 13.4635 20.6667 13.7969 20.5 13.9635L18.75 15.7969L20.5833 17.6302C20.75 17.7969 20.75 18.1302 20.5833 18.2969C20.4167 18.4635 20.0833 18.4635 19.9167 18.2969L18.0833 16.4635L16.25 18.2969C16.0833 18.4635 15.75 18.4635 15.5833 18.2969C15.4167 18.1302 15.4167 17.7969 15.5833 17.6302L17.3333 15.7969L15.5 13.9635C15.3333 13.7969 15.3333 13.4635 15.5 13.2969C15.6667 13.1302 16 13.1302 16.1667 13.2969L18 15.1302L19.8333 13.2969C20 13.1302 20.3333 13.1302 20.5 13.2969Z" fill="white"/>
<path d="M10.5833 13.3802C10.75 13.5469 10.8333 13.8802 10.6667 14.0469L7.16667 18.1302C7.08333 18.2136 7 18.2969 6.91667 18.2969C6.75 18.3802 6.5 18.3802 6.33333 18.2136L4.5 16.3802C4.33333 16.2136 4.33333 15.8802 4.5 15.7136C4.66667 15.5469 5 15.5469 5.16667 15.7136L6.66667 17.1302L9.83333 13.3802C10 13.2136 10.3333 13.2136 10.5833 13.3802Z" fill="#0066FF"/>
</svg>
